<svg id="Group_50" data-name="Group 50" xmlns="http://www.w3.org/2000/svg" xmlns:xlink="http://www.w3.org/1999/xlink" width="335.556" height="289.853" viewBox="0 0 335.556 289.853">
  <defs>
    <clipPath id="clip-path">
      <rect id="Rectangle_10" data-name="Rectangle 10" width="335.556" height="289.853" fill="#e91f24"/>
    </clipPath>
  </defs>
  <g id="Group_11" data-name="Group 11" clip-path="url(#clip-path)">
    <path id="Path_40" data-name="Path 40" d="M211.655,289.853a.743.743,0,0,1,.206-.762,5.732,5.732,0,0,1,.638-.507,107.953,107.953,0,0,0,23.608-23.113,112.133,112.133,0,0,0,18.518-36.412,116.5,116.5,0,0,0,3.766-18.012,122.573,122.573,0,0,0,.8-21.941,156.814,156.814,0,0,0-3.849-26.508,76.38,76.38,0,0,0-7.054-18.495,126.4,126.4,0,0,0-15.9-23.764c-13.9-16.385-30.783-28.027-50.8-34.653a114.124,114.124,0,0,0-18.474-4.433,127.42,127.42,0,0,0-13.6-1.393q-2.57-.119-5.141-.21a62.616,62.616,0,0,0-10.419.75A133.778,133.778,0,0,0,116.141,84a115.017,115.017,0,0,0-25.9,10.417,85.413,85.413,0,0,0-13.789,9.54c-1.3,1.113-1.181,1.032-2.458.127q-15.51-11-31.768-20.744A314.372,314.372,0,0,0,13.055,67.677c-3.774-1.75-7.592-3.386-11.473-4.862-.3-.115-.61-.216-.906-.347A.989.989,0,0,1,0,61.294a.931.931,0,0,1,.781-.923,15.27,15.27,0,0,1,3.335-.5,33.48,33.48,0,0,1,6.089.445,100.806,100.806,0,0,1,16.417,4.041A305.919,305.919,0,0,1,56.905,76.142c4.2,1.855,8.357,3.8,12.536,5.694a1.486,1.486,0,0,0,.923.282c.156-.463-.225-.7-.427-.977a41.6,41.6,0,0,0-6.8-7.114,58.075,58.075,0,0,0-7.712-5.463c-.372-.223-.748-.439-1.11-.678s-.374-.5-.073-.818.624-.614.938-.919A74.711,74.711,0,0,0,67.958,49.818a56.745,56.745,0,0,0,7.009-18.824,47.778,47.778,0,0,0-.2-17.346c-.064-.329-.144-.655-.195-.985a.751.751,0,0,1,.5-.919c.556-.2,1.106-.427,1.666-.62,7.694-2.651,15.52-4.8,23.411-6.7q9.795-2.359,19.7-4.173c.211-.039.418-.1.63-.137,1.448-.244,1.518-.2,1.916,1.227a78.922,78.922,0,0,0,12.414,25.621q15.215,20.8,39.795,26.182a81.7,81.7,0,0,0,19.827,1.738c1.5-.038,3-.1,4.5-.158.241-.01.527.077.7-.2-.05-.319-.3-.284-.494-.3-13.452-.786-25.588-5.7-37.023-12.827-2.35-1.463-4.628-3.041-6.849-4.708-.3-.222-.682-.354-.825-.775.393-.129.727.089,1.068.2a62.314,62.314,0,0,0,12.755,2.63,63.535,63.535,0,0,0,10.925.186,60.119,60.119,0,0,0,20.554-5.106,68.178,68.178,0,0,0,21.063-14.868c.958-.979,1.892-1.983,2.823-2.99a.873.873,0,0,1,1.15-.231c1.461.7,2.943,1.357,4.4,2.073a178.313,178.313,0,0,1,21.68,12.47,93.838,93.838,0,0,1,11.8,9.3c.278.263.549.534.825.8a.823.823,0,0,1,.161,1.057c-.317.648-.628,1.3-.926,1.957a96.311,96.311,0,0,0-7.524,25.583,76.818,76.818,0,0,0-.653,17.074A63.53,63.53,0,0,0,269.5,123.12,81.249,81.249,0,0,0,283.567,136.1c.216.16.45.293.693.45.206-.4-.159-.492-.285-.684a3.734,3.734,0,0,0-.446-.481,85.943,85.943,0,0,1-10.93-14.266,68.042,68.042,0,0,1-7.985-18.254,56.352,56.352,0,0,1-1.7-11.587c-.026-.5-.025-1.008,0-1.51.01-.25-.12-.647.243-.685.3-.031.348.365.485.59.057.094.1.2.147.3a69.371,69.371,0,0,0,12.941,18.077,56.635,56.635,0,0,0,29.16,16.108,58.71,58.71,0,0,0,17.929.9c1.833-.187,1.849-.2,2.414,1.569a251.777,251.777,0,0,1,8.169,31.57,40.97,40.97,0,0,1,.873,6.472,1.348,1.348,0,0,0,.286.934v6.381a3.883,3.883,0,0,0-1.84.521,76.6,76.6,0,0,0-7.642,3.537,85.3,85.3,0,0,0-26.6,21.349,70.33,70.33,0,0,0-9.2,14.525,72.965,72.965,0,0,0-6.775,27.947,92.524,92.524,0,0,0,.326,12.239c.073.884.234,1.759.354,2.639a1.9,1.9,0,0,0,.228-.817c.287-2.723.507-5.453.907-8.165a101.1,101.1,0,0,1,5.542-21.677,66.611,66.611,0,0,1,10.213-18.162c.342-.423.56-1.072,1.259-1.061a2.814,2.814,0,0,1-.31,1.607,72.255,72.255,0,0,0-2.739,16.832,68.347,68.347,0,0,0,.486,11.888,66.677,66.677,0,0,0,5.7,20.018A70.814,70.814,0,0,0,318.3,273.964c.526.559,1.035,1.14,1.6,1.65a1.641,1.641,0,0,1,.474,1.813c-.058.215-.118.43-.176.645a26.883,26.883,0,0,1-5.53,10.685c-.279.325-.668.586-.68,1.1Z" transform="translate(0 0)" fill="#e91f24"/>
  </g>
</svg>
