<svg id="Group_58" data-name="Group 58" xmlns="http://www.w3.org/2000/svg" xmlns:xlink="http://www.w3.org/1999/xlink" width="185.775" height="124.775" viewBox="0 0 185.775 124.775">
  <defs>
    <clipPath id="clip-path">
      <rect id="Rectangle_1" data-name="Rectangle 1" width="185.775" height="124.775" fill="none"/>
    </clipPath>
  </defs>
  <g id="Group_1" data-name="Group 1" clip-path="url(#clip-path)">
    <path id="Path_1" data-name="Path 1" d="M327.43,124.774a.311.311,0,0,1,.093-.328,2.563,2.563,0,0,1,.287-.218A49.245,49.245,0,0,0,346.739,98.6a48.32,48.32,0,0,0,1.692-7.754,50.563,50.563,0,0,0,.361-9.445,64.862,64.862,0,0,0-1.73-11.411,32.048,32.048,0,0,0-3.169-7.961,54.314,54.314,0,0,0-7.143-10.23,50.314,50.314,0,0,0-22.827-14.917,53.163,53.163,0,0,0-8.3-1.908,59.684,59.684,0,0,0-6.109-.6q-1.155-.051-2.31-.09a29.347,29.347,0,0,0-4.682.323,62.44,62.44,0,0,0-8.011,1.55,53.013,53.013,0,0,0-11.64,4.484,38.47,38.47,0,0,0-6.2,4.107c-.586.479-.531.444-1.1.055q-6.969-4.733-14.275-8.93a143.4,143.4,0,0,0-13.105-6.743c-1.7-.753-3.412-1.458-5.155-2.093-.136-.049-.274-.093-.407-.149a.424.424,0,0,1-.3-.505.407.407,0,0,1,.351-.4,7.141,7.141,0,0,1,1.5-.213,15.691,15.691,0,0,1,2.736.191,46.945,46.945,0,0,1,7.377,1.739,141.167,141.167,0,0,1,13.606,5.072c1.886.8,3.755,1.635,5.633,2.451a.688.688,0,0,0,.415.121c.07-.2-.1-.3-.192-.421a18.267,18.267,0,0,0-3.056-3.062,26.122,26.122,0,0,0-3.465-2.352c-.167-.1-.336-.189-.5-.292s-.168-.215-.033-.352.28-.264.421-.4a32.4,32.4,0,0,0,5.742-7.03,23.8,23.8,0,0,0,3.15-8.1,19.719,19.719,0,0,0-.091-7.467c-.029-.141-.065-.282-.088-.424a.322.322,0,0,1,.227-.4c.25-.088.5-.184.749-.267,3.457-1.141,6.974-2.066,10.52-2.884q4.4-1.016,8.851-1.8c.095-.017.188-.044.283-.059.651-.105.682-.088.861.528A33.4,33.4,0,0,0,292.9,11.606a29.5,29.5,0,0,0,17.882,11.271,38.275,38.275,0,0,0,8.909.748c.675-.017,1.349-.041,2.023-.068.108,0,.237.033.315-.087-.022-.137-.136-.122-.222-.127a36.173,36.173,0,0,1-16.636-5.522c-1.056-.63-2.08-1.309-3.078-2.027-.133-.1-.306-.152-.371-.334a.768.768,0,0,1,.48.086,29.073,29.073,0,0,0,5.731,1.132,29.794,29.794,0,0,0,4.909.08,27.98,27.98,0,0,0,9.236-2.2,30.668,30.668,0,0,0,9.465-6.4c.43-.421.85-.854,1.269-1.287a.4.4,0,0,1,.517-.1c.656.3,1.322.584,1.976.892a81.084,81.084,0,0,1,9.742,5.368,41.95,41.95,0,0,1,5.3,4c.125.113.247.23.371.344a.344.344,0,0,1,.072.455c-.143.279-.282.559-.416.842a40.16,40.16,0,0,0-3.381,11.013,31.7,31.7,0,0,0-.293,7.35A26.738,26.738,0,0,0,353.424,53a35.968,35.968,0,0,0,6.319,5.589c.1.069.2.126.312.194.093-.173-.071-.212-.128-.294a1.636,1.636,0,0,0-.2-.207,37.221,37.221,0,0,1-4.912-6.141,28.678,28.678,0,0,1-3.588-7.858,23.31,23.31,0,0,1-.764-4.988c-.011-.216-.011-.434,0-.65,0-.108-.054-.278.109-.295.133-.014.156.157.218.254.026.04.044.086.066.128a29.926,29.926,0,0,0,5.815,7.782,25.776,25.776,0,0,0,13.1,6.934,27.516,27.516,0,0,0,8.056.386c.824-.08.831-.087,1.085.675a104.712,104.712,0,0,1,3.671,13.59,16.94,16.94,0,0,1,.392,2.786.564.564,0,0,0,.128.4v2.747a1.8,1.8,0,0,0-.827.224,35.155,35.155,0,0,0-3.434,1.523,38.087,38.087,0,0,0-11.952,9.19,29.744,29.744,0,0,0-7.18,18.283,38.164,38.164,0,0,0,.146,5.268c.033.38.105.757.159,1.136a.79.79,0,0,0,.1-.352c.129-1.172.228-2.348.408-3.515a42.051,42.051,0,0,1,2.49-9.331,28.37,28.37,0,0,1,4.589-7.818c.153-.182.252-.462.566-.457.074.254-.071.47-.139.692a29.917,29.917,0,0,0-1.231,7.246,28.211,28.211,0,0,0,.218,5.118,27.79,27.79,0,0,0,2.56,8.617,30.472,30.472,0,0,0,5.772,8.078c.236.241.465.491.72.711a.687.687,0,0,1,.213.781c-.026.093-.053.185-.079.278a11.41,11.41,0,0,1-2.485,4.6c-.125.14-.3.252-.306.471Z" transform="translate(-197.329 0)" fill="#e91f25"/>
    <path id="Path_2" data-name="Path 2" d="M89.219,397.6a2.418,2.418,0,0,1,.554.563,13.2,13.2,0,0,0,4.767,3.437,10.915,10.915,0,0,0,8.778-.07,17.294,17.294,0,0,0,4.4-2.744c.425-.355.829-.735,1.245-1.1.187-.164.234-.169.43,0q1.1.937,2.194,1.884,2.821,2.429,5.642,4.859c.163.141.321.289.466.421a.346.346,0,0,1-.111.281,26.374,26.374,0,0,1-13.838,7.753,22.9,22.9,0,0,1-11.7-.709,27.259,27.259,0,0,1-11.5-6.963,20.633,20.633,0,0,1-5.116-8.363,2.655,2.655,0,0,0-.1-.271.774.774,0,0,0-.09-.124,9.493,9.493,0,0,1-3.447.977,64.294,64.294,0,0,1-10.68.349c-.915-.03-1.83-.065-2.746-.091-.24-.007-.295.051-.307.291-.011.216-.01.434-.011.65q-.029,6.4-.058,12.793c0,.193,0,.386,0,.578-.011.29-.034.309-.351.323-.1,0-.193,0-.289,0l-10.267.078c-.871.007-.794.038-.79-.768q.054-12.034.11-24.069c0-.144,0-.289.008-.433a.218.218,0,0,1,.219-.234c.216-.008.433-.011.65-.012l19.594-.032a8.52,8.52,0,0,0,4.211-1.115,5.092,5.092,0,0,0,2.418-2.766,5.594,5.594,0,0,0,.307-2.061,3.875,3.875,0,0,0-.991-2.428,5.7,5.7,0,0,0-1.371-1.166,10,10,0,0,0-2.8-1.145,3.826,3.826,0,0,0-.934-.082q-4.483-.038-8.965-.077-2.964-.027-5.929-.06c-.144,0-.289,0-.434,0a.43.43,0,0,0-.416.232c-.095.168-.193.333-.289.5q-9.06,15.79-18.12,31.58a3.016,3.016,0,0,1-.5.749c-.467-.73-.828-1.458-1.229-2.163s-.771-1.39-1.155-2.085l-1.188-2.15-1.189-2.149-1.19-2.149q-.577-1.043-1.154-2.086-.6-1.074-1.192-2.148l-1.191-2.148-1.189-2.149c-.385-.7-.765-1.393-1.154-2.086s-.762-1.415-1.169-2.085c-.164.052-.154.133-.155.2-.006.241-.006.482-.006.723q0,12.4,0,24.792c0,1.088.123.952-.967.956q-4.989.018-9.978.023c-.169,0-.337,0-.506,0-.38-.009-.4-.025-.408-.417,0-.169,0-.337,0-.506q0-22.7,0-45.392c0-1.1-.139-.938.967-.941,3.23-.007,6.459,0,9.689,0,.193,0,.386.007.578,0a.365.365,0,0,1,.348.209c.1.167.187.337.279.506q6.31,11.533,12.622,23.066a2.5,2.5,0,0,0,.457.723,1.128,1.128,0,0,0,.33-.474q3.458-6.26,6.912-12.522c.023-.042.05-.082.074-.124.3-.534.228-.56-.3-.553-1.928.028-3.856.05-5.784.076-1.4.019-2.8.03-4.193.067a.725.725,0,0,1-.736-.427c-1.468-2.545-2.956-5.078-4.437-7.615q-.674-1.154-1.345-2.31c-.081-.14-.217-.263-.172-.473a1.938,1.938,0,0,1,.7-.048q11.171-.042,22.341-.077c7.254-.019,14.509-.008,21.763-.051a19.6,19.6,0,0,1,11.229,3.611,14.834,14.834,0,0,1,2.291,2.093c.3.34.312.34.676.025a27.849,27.849,0,0,1,6.226-4.037,25.116,25.116,0,0,1,7.145-2.223,23.039,23.039,0,0,1,12.255,1.5A31.5,31.5,0,0,1,116.3,371.1c.462.385.911.786,1.378,1.189-.054.22-.229.315-.361.436q-2.219,2.019-4.444,4.031a1.064,1.064,0,0,1-.213-.528,6.964,6.964,0,0,1-.107-2.439c.069-.475.167-.947.256-1.419.064-.339.071-.346-.229-.505-1.339-.709-2.684-1.406-4.017-2.126a.541.541,0,0,0-.7.076,9.669,9.669,0,0,1-2.779,1.651,6.676,6.676,0,0,1-4.382.277.809.809,0,0,0-.406-.031,7.851,7.851,0,0,0,2.321,1.22,11.547,11.547,0,0,0,2.623.554,2.032,2.032,0,0,1-.072.3c-.128.305-.15.316-.487.268a9.321,9.321,0,0,1-3.137-1.024,10.509,10.509,0,0,1-4.476-4.849c-.074-.151-.14-.306-.2-.463a.3.3,0,0,0-.343-.2c-.144.011-.288.021-.431.038a22.684,22.684,0,0,0-3.671.747,5.2,5.2,0,0,0-1.173.384c0,.383,0,.766,0,1.149a6.266,6.266,0,0,1-.989,3.345,7.212,7.212,0,0,1-2.63,2.416c-.1.056-.3.047-.259.277a4.593,4.593,0,0,0,1.217-.09,10.044,10.044,0,0,0,1.174-.348,16.779,16.779,0,0,0,2.821-1.68c.013-.008.009-.046.013-.069l0-.029c-.275.127-.321.435-.5.64a7.325,7.325,0,0,1-3.108,2.154,7.736,7.736,0,0,1-4.2.213A11.492,11.492,0,0,1,82,375.7c-.3-.147-.333-.14-.55.111-.188.218-.364.448-.535.681a17.553,17.553,0,0,0-1.748,3.066.483.483,0,0,0,.117.635,7.212,7.212,0,0,1,.715.811,7.528,7.528,0,0,1,1.577,6.028.984.984,0,0,0-.014.568c-.071,0-.135.005-.073.1l.056-.118c.112-.007.158-.1.211-.173a10.561,10.561,0,0,0,.941-1.7c.385-.832.442-1.758.775-2.6.01-.026-.027-.088-.059-.108a.137.137,0,0,0-.12,0c-.033.019-.075.085-.065.105a3.68,3.68,0,0,1,.121,1.967,4.292,4.292,0,0,1-.068.5,6.5,6.5,0,0,1-2.577,4.27,7.822,7.822,0,0,1-2.522,1.2c-.138.04-.281.064-.418.109a.194.194,0,0,0-.146.217,4.635,4.635,0,0,0,.078.5c.278,1.144.549,2.289.849,3.427a4.6,4.6,0,0,0,.431,1.211.423.423,0,0,0,.078.022,2.616,2.616,0,0,0,.287.014,5.765,5.765,0,0,1,3.34.967,10.075,10.075,0,0,1,2.042,1.705c.108.115.182.287.389.284.156-.21.3-.433.473-.631a2.223,2.223,0,0,1,.846-.756l.085.087a8.922,8.922,0,0,1-.564,1.321,24.779,24.779,0,0,0-1.442,3.991,5.151,5.151,0,0,0-.2,1.494,1.476,1.476,0,0,0,.088.416.111.111,0,0,0,.179.027,1.415,1.415,0,0,0,.16-.32,21.435,21.435,0,0,1,1.066-2.2,43.961,43.961,0,0,1,3.136-4.831,1.052,1.052,0,0,0,.284-.491" transform="translate(-6.828 -309.366)" fill="#fefefe"/>
    <path id="Path_3" data-name="Path 3" d="M484.922,392.285c0,.024,0,.061-.013.069a16.782,16.782,0,0,1-2.821,1.68,10.013,10.013,0,0,1-1.174.348,4.592,4.592,0,0,1-1.216.09c-.042-.23.159-.221.259-.277a7.212,7.212,0,0,0,2.63-2.416,6.267,6.267,0,0,0,.989-3.345c.005-.383,0-.766,0-1.149a5.2,5.2,0,0,1,1.173-.384,22.67,22.67,0,0,1,3.671-.747c.143-.016.287-.027.431-.038a.3.3,0,0,1,.343.2c.062.156.128.312.2.463a10.51,10.51,0,0,0,4.476,4.849,9.328,9.328,0,0,0,3.137,1.024c.337.048.359.037.487-.268a2.038,2.038,0,0,0,.072-.3,11.545,11.545,0,0,1-2.623-.554,7.854,7.854,0,0,1-2.321-1.22.809.809,0,0,1,.406.031,6.676,6.676,0,0,0,4.382-.277,9.669,9.669,0,0,0,2.779-1.651.541.541,0,0,1,.7-.076c1.333.72,2.678,1.417,4.017,2.126.3.159.293.167.229.505-.089.472-.187.944-.256,1.419a6.964,6.964,0,0,0,.107,2.439,1.063,1.063,0,0,0,.213.528,1.894,1.894,0,0,0,.236.826,6.385,6.385,0,0,0,2.041,2.487c.188.138.428.221.541.437-.009.154-.129.144-.212.162-1.762.4-3.525.79-5.285,1.2a.5.5,0,0,1-.6-.257,11.569,11.569,0,0,0-2.205-2.277,5.639,5.639,0,0,0-1.021-.678,15.61,15.61,0,0,0-8.387-1.728,11.632,11.632,0,0,0-3.541.652,12.582,12.582,0,0,0-6.758,5.809,12.042,12.042,0,0,0-1.354,6.923,13.749,13.749,0,0,0,1.79,5.678c.326.56.728,1.076,1.1,1.612a1.051,1.051,0,0,1-.284.491,43.94,43.94,0,0,0-3.136,4.831,21.444,21.444,0,0,0-1.066,2.2,1.413,1.413,0,0,1-.16.32.11.11,0,0,1-.179-.027,1.476,1.476,0,0,1-.088-.416,5.152,5.152,0,0,1,.2-1.494,24.77,24.77,0,0,1,1.442-3.991,8.867,8.867,0,0,0,.564-1.322c.049-.041.1-.1.044-.151s-.1.007-.129.065a2.223,2.223,0,0,0-.846.756c-.174.2-.318.421-.474.631-.207,0-.281-.169-.389-.284a10.076,10.076,0,0,0-2.042-1.705,5.765,5.765,0,0,0-3.34-.967,2.615,2.615,0,0,1-.287-.014.435.435,0,0,1-.078-.022,4.6,4.6,0,0,1-.431-1.211c-.3-1.138-.571-2.284-.849-3.427a4.621,4.621,0,0,1-.078-.5.194.194,0,0,1,.146-.217c.136-.045.279-.069.418-.109a7.82,7.82,0,0,0,2.522-1.2,6.5,6.5,0,0,0,2.577-4.271,4.262,4.262,0,0,0,.068-.5,3.679,3.679,0,0,0-.121-1.967c-.01-.021.032-.086.065-.105a.136.136,0,0,1,.12,0c.031.02.069.082.059.108-.333.845-.39,1.771-.775,2.6a10.568,10.568,0,0,1-.941,1.7c-.054.075-.1.166-.211.173l.016.017a.982.982,0,0,1,.013-.568,7.527,7.527,0,0,0-1.577-6.028,7.171,7.171,0,0,0-.715-.811.483.483,0,0,1-.117-.635,17.542,17.542,0,0,1,1.748-3.066c.171-.232.346-.462.535-.681.217-.251.253-.257.55-.111a11.492,11.492,0,0,0,2.785.968,7.736,7.736,0,0,0,4.2-.213,7.327,7.327,0,0,0,3.108-2.154c.18-.206.226-.513.5-.639-.016.049-.05.033-.035.016.065-.07-.053-.022.037.012" transform="translate(-399.159 -327.955)" fill="#e91f25"/>
    <path id="Path_4" data-name="Path 4" d="M54.614,702.636h53.355c.289,0,.578,0,.867.012a.262.262,0,0,1,.29.258c.01.337.01.674,0,1.011a.263.263,0,0,1-.267.28c-.24.012-.482.015-.722.015H1.285c-.217,0-.434,0-.651,0-.62-.01-.63-.017-.634-.666-.006-.988-.029-.909.9-.909H54.614" transform="translate(0.001 -596.798)" fill="#e91f25"/>
    <path id="Path_5" data-name="Path 5" d="M207.344,730.456h-8.891c-.193,0-.386-.009-.578.006a.805.805,0,0,0-.793.779c-.011.1,0,.193-.008.289-.022.264-.1.339-.349.359-.309.026-.4-.048-.415-.338a2.082,2.082,0,0,1,1.067-2.124c.242-.134.251-.276.194-.523a2.45,2.45,0,0,1,.068-1.488,1.881,1.881,0,0,1,1.221-1.151,2.35,2.35,0,0,1,2.638.631,1.317,1.317,0,0,1,.272.421c.1.311.351.677.1.952-.228.253-.634.136-.968.119-.11-.006-.163-.092-.2-.184a1.028,1.028,0,0,1-.021-.142.9.9,0,0,0-.057-.208,1.176,1.176,0,0,0-1.7-.152.914.914,0,0,0,.567,1.45,1.024,1.024,0,0,0,.144.007c1.157,0,2.313,0,3.47,0,.265,0,.356-.087.376-.33.016-.192.013-.385.013-.578q0-1.59,0-3.18c0-.168,0-.337.011-.505a.19.19,0,0,1,.171-.2.441.441,0,0,1,.071-.011c1.14.008,1.033-.213,1.04.939,0,.169-.012.338,0,.506.019.2-.1.467.12.59.191.1.338-.132.514-.194a2.151,2.151,0,0,1,.709-.116c.434,0,.869.02,1.3-.007a2.111,2.111,0,0,1,2.206,2.175c.01.192,0,.386.007.578.013.265.074.317.36.332.721.039.731.031.737-.677a2.846,2.846,0,0,1,.157-1.062,1.95,1.95,0,0,1,1.729-1.328c.693-.059,1.4-.02,2.094-.01.306,0,.368.074.373.4.009.65,0,1.3,0,1.951,0,.168,0,.337.014.5a.2.2,0,0,0,.182.191,4.618,4.618,0,0,0,.5.031c.532,0,.575-.03.578-.57.007-1.2,0-2.409,0-3.613,0-.144,0-.289.01-.432a.2.2,0,0,1,.185-.189,5.056,5.056,0,0,1,.576-.013c.469.014.48.019.481.5q.007,2.276,0,4.553a1.581,1.581,0,0,1-.043.428.784.784,0,0,1-.712.621c-.191.018-.385.012-.578.012h-8.964m-.786-1.3v.008h.933c.931,0,.836.069.845-.855,0-.024,0-.048,0-.072-.013-.577-.246-.838-.82-.856-.6-.019-1.2-.008-1.795,0a1.46,1.46,0,0,0-.424.063.618.618,0,0,0-.48.563c-.019.309-.018.62-.006.93a.221.221,0,0,0,.237.218c.5,0,1,0,1.507,0m6.321,0v.009c.144,0,.288,0,.432,0,.512-.008.54-.032.551-.513.005-.216,0-.432,0-.649,0-.657.02-.625-.63-.627a3.726,3.726,0,0,0-.5.019.691.691,0,0,0-.685.7,5.661,5.661,0,0,0,0,.79c.012.221.08.267.33.274.168,0,.336,0,.5,0" transform="translate(-166.735 -615.233)" fill="#fefefe"/>
    <path id="Path_6" data-name="Path 6" d="M379.526,736.231a3.066,3.066,0,0,1,1.875-.38c.289,0,.578.005.867,0a2,2,0,0,1,1.929,1.8c.011.337.021.673.038,1.01a.255.255,0,0,0,.277.267c1.169,0,1.028.181,1.036-.945,0-.6,0-1.2.008-1.807,0-.223.086-.311.308-.313.747-.009,1.5-.033,2.24,0a2.02,2.02,0,0,1,1.736,1.513,6.768,6.768,0,0,1,.11,1.218c-.008.409,0,.819-.005,1.228a.8.8,0,0,1-.624.69.266.266,0,0,1-.2-.057,1.362,1.362,0,0,0-1.029-.227H374.362a3.361,3.361,0,0,1-.361,0c-.278-.03-.639.135-.815-.124-.189-.278-.08-.652-.054-.985a.2.2,0,0,1,.2-.173c.192-.014.384-.019.577-.02.482,0,.964.009,1.446,0,.229,0,.306-.081.315-.3a5.835,5.835,0,0,0,0-.722.711.711,0,0,0-.7-.69c-.336-.023-.674-.005-1.011-.014-.272-.007-.342-.066-.341-.343,0-1.068-.139-.935.9-.948a2.561,2.561,0,0,1,1.266.21,1.913,1.913,0,0,1,1.14,1.7c.012.264,0,.529.009.793.008.217.1.3.307.315.048,0,.1,0,.144,0,.78,0,.8.125.779-.768-.012-.674,0-1.349,0-2.023a.248.248,0,0,1,.259-.277c.168-.01.337-.008.506,0,.352.007.352.009.6.378m1.747,2.688v.015c.287,0,.575,0,.862,0,.986-.009.89.125.877-.958a.743.743,0,0,0-.8-.817c-.622-.022-1.245-.011-1.868-.007a1.624,1.624,0,0,0-.355.049.673.673,0,0,0-.557.653,6.926,6.926,0,0,0,0,.718c.01.279.063.34.335.346.5.01,1.005,0,1.508,0m6.478.015c1.137-.014.913.173.929-.934a.772.772,0,0,0-.707-.834,2.717,2.717,0,0,0-.428-.02c-.748,0-.725-.068-.716.671,0,.072,0,.143,0,.215.014,1.028-.133.889.922.9" transform="translate(-316.881 -625.007)" fill="#fefefe"/>
    <path id="Path_7" data-name="Path 7" d="M88.408,729.119c0-.426-.009-.761,0-1.1a1.952,1.952,0,0,1,1.872-1.918,2.383,2.383,0,0,1,1.6.312,1.967,1.967,0,0,1,.938,1.614c0,.22-.071.294-.3.319-.12.013-.24.021-.36.024-.431.011-.445.015-.6-.42a.761.761,0,0,0-.823-.557c-.072,0-.145,0-.217,0a.794.794,0,0,0-.876.962.757.757,0,0,0,.668.734,3.218,3.218,0,0,0,.5.026c.988,0,1.975.006,2.963,0,.52,0,.56-.044.562-.587.005-1.108,0-2.215,0-3.323,0-.193,0-.385,0-.578.01-.259.051-.315.282-.318,1.077-.012.963-.119.967.877,0,1.276,0,2.552,0,3.829,0,.12,0,.241,0,.361-.021.768-.277,1.032-1.061,1.034-2.7.007-5.4,0-8.093,0-.963,0-1.927.006-2.89,0a.851.851,0,0,1-.958-.923c-.023-.408-.008-.818-.008-1.228q0-1.661,0-3.323a4.263,4.263,0,0,1,.02-.432.194.194,0,0,1,.183-.19c.24-.016.481-.031.72-.026s.325.08.327.362c.01,1.18.011,2.36.017,3.539,0,.24.005.481.018.721a.185.185,0,0,0,.183.186q.576.009,1.152,0a.192.192,0,0,0,.185-.188c.015-.167.02-.336.021-.5,0-.65,0-1.3,0-1.951,0-.3.055-.354.329-.354,1.055,0,.948-.113.95.9,0,.6,0,1.2.007,1.806,0,.229.081.3.3.308.455.007.911,0,1.407,0" transform="translate(-70.138 -615.195)" fill="#fefefe"/>
    <path id="Path_8" data-name="Path 8" d="M506.869,730.369c-.866,0-1.733-.005-2.6,0a1.174,1.174,0,0,1-.98-.35c-.136-.155-.257-.087-.343.053a.554.554,0,0,1-.53.294c-.866-.01-1.733,0-2.6,0-.336,0-.387-.052-.4-.365-.022-.721-.011-1.442.011-2.163a1.951,1.951,0,0,1,1.789-1.767,2.432,2.432,0,0,1,1.617.181.145.145,0,0,0,.188-.037c.308-.294.673-.141,1.018-.127.05,0,.126.084.138.141a2.131,2.131,0,0,1,.039.428c0,.7,0,1.4.008,2.093,0,.236.069.308.3.309q1.985.01,3.971.009a.252.252,0,0,0,.275-.264,6.905,6.905,0,0,0,.023-.721.764.764,0,0,0-.712-.771,4.862,4.862,0,0,0-.648-.028c-.529-.005-1.059,0-1.588-.01-.212,0-.288-.1-.306-.319-.072-.86-.053-.9.633-1.463.39-.321.785-.636,1.159-.975a1.023,1.023,0,0,1,.79-.277c.168.01.338,0,.5.029.246.036.521-.143.74.1-.086.247-.323.345-.5.5-.235.207-.492.388-.72.6-.144.135-.467.192-.379.438.059.165.347.071.53.1a2.038,2.038,0,0,1,1.7,2.025c-.017.625,0,1.251-.006,1.877-.006.42-.046.457-.453.459-.891,0-1.781,0-2.672,0Zm-5.015-1.3h0c.287,0,.574.006.861,0,.234-.006.311-.077.317-.292.011-.382.015-.765.012-1.147a.247.247,0,0,0-.258-.278c-.478,0-.957-.015-1.435.006a.746.746,0,0,0-.718.675,5.511,5.511,0,0,0,0,.787c.007.174.128.247.29.248.311,0,.622,0,.933,0" transform="translate(-424.185 -615.148)" fill="#fefefe"/>
    <path id="Path_9" data-name="Path 9" d="M577.184,739c.08.036.124.075.167.074,1.07-.026,1.043.158,1.037-.982,0-.577-.008-1.155,0-1.732,0-.273.071-.324.351-.336.168-.007.337-.012.505-.007.258.008.334.083.336.355.005.721,0,1.443,0,2.165,0,.546,0,.547.569.532.251-.007.311-.051.317-.281.009-.361,0-.722,0-1.083,0-.337,0-.673,0-1.01,0-.747-.021-.677.728-.678.1,0,.193,0,.288.006a.229.229,0,0,1,.233.227c.014.264.013.528.014.793,0,.577,0,1.155.008,1.732,0,.232.08.293.31.3a2.845,2.845,0,0,0,.36-.012.233.233,0,0,0,.226-.234c.012-.24.01-.481.011-.721,0-.577,0-1.155,0-1.732,0-.292.061-.362.325-.355.9.024.873-.181.871.824q0,1.119,0,2.237c0,.144.005.289,0,.433-.036.579-.282.843-.848.852a2.131,2.131,0,0,1-1.267-.164.333.333,0,0,0-.335.015,2.2,2.2,0,0,1-1.74.006.378.378,0,0,0-.4,0,1.12,1.12,0,0,1-.692.149c-.337,0-.675.028-1.01.009a.608.608,0,0,0-.686.392,1.139,1.139,0,0,1-.18.31,1.926,1.926,0,0,1-1.787.732.225.225,0,0,1-.22-.234,1.923,1.923,0,0,1,.015-.359.2.2,0,0,1,.191-.183.978.978,0,0,0,.83-.348,1.279,1.279,0,0,0,.121-.838q0-1.552,0-3.1a3.892,3.892,0,0,1,.014-.432.273.273,0,0,1,.288-.261c.241-.005.481-.008.722,0s.305.058.309.294c.011.649.011,1.3.014,1.948,0,.238,0,.476,0,.7" transform="translate(-488.114 -625.147)" fill="#fefefe"/>
    <path id="Path_10" data-name="Path 10" d="M65.471,790.375c.19-.1.241-.293.333-.457.282-.5.571-1,.83-1.519a.565.565,0,0,1,.637-.347c.1.011.193,0,.288.011a.241.241,0,0,1,.23.232,3.013,3.013,0,0,1,.02.359q0,1.7-.007,3.395a2.131,2.131,0,0,1-.015.288.231.231,0,0,1-.241.218c-.144,0-.289.011-.433,0-.261-.013-.307-.075-.31-.364q-.01-.9-.028-1.8a.153.153,0,0,0-.067-.115.133.133,0,0,0-.178.067c-.2.358-.384.721-.585,1.077a2.323,2.323,0,0,1-.5.737,2.143,2.143,0,0,1-.446-.645c-.208-.38-.411-.762-.624-1.138a.248.248,0,0,0-.164-.107c-.095-.011-.1.081-.1.149,0,.409,0,.818,0,1.227,0,.12,0,.241,0,.361.007.509-.013.571-.576.556-.341-.009-.421-.082-.423-.435q-.011-1.806,0-3.612c0-.383.086-.437.477-.461a.635.635,0,0,1,.695.382c.256.516.548,1.015.832,1.517.091.161.133.371.356.422" transform="translate(-53.601 -669.343)" fill="#fefefe"/>
    <path id="Path_11" data-name="Path 11" d="M483.116,792.287l-1.189-2.134a.5.5,0,0,0-.118.029.077.077,0,0,0-.031.054c-.014.744-.026,1.487-.039,2.22-.06.035-.1.076-.142.08-.9.093-.809-.031-.8-.729.01-.937-.012-1.875-.02-2.812,0-.1,0-.192,0-.288.017-.576-.015-.688.728-.641a.5.5,0,0,1,.437.318c.311.6.643,1.181.962,1.772a.424.424,0,0,0,.284.265c.337-.617.71-1.231,1.012-1.878a.732.732,0,0,1,.834-.49c.426.039.476.047.477.443q0,1.876-.008,3.751c0,.236-.068.3-.293.314l-.072,0c-.7.013-.644-.023-.645-.62,0-.528,0-1.056-.011-1.584a.141.141,0,0,0-.136-.139.154.154,0,0,0-.11.07c-.267.482-.529.968-.795,1.451-.08.146-.17.286-.324.546" transform="translate(-408.355 -669.344)" fill="#fefefe"/>
    <path id="Path_12" data-name="Path 12" d="M581.793,792.543c-.138.011-.256.013-.371.03a.819.819,0,0,1-.884-.447c-.381-.582-.825-1.123-1.246-1.678-.13-.17-.274-.329-.4-.482-.155.032-.137.134-.138.225,0,.7-.011,1.395-.013,2.092,0,.174-.078.274-.249.282-.213.009-.426,0-.566,0a.362.362,0,0,1-.162-.38q-.01-1.8-.01-3.608a1.364,1.364,0,0,1,.017-.287c.014-.065.049-.154.1-.177a1.847,1.847,0,0,1,.712-.047c.162-.007.255.11.343.229q.814,1.1,1.632,2.2c.057.076.117.149.179.22.013.015.049.029.061.022.037-.021.092-.051.1-.083a3,3,0,0,0,.013-.359c0-.6-.009-1.2,0-1.8,0-.406.049-.438.475-.432.048,0,.1,0,.144.006.263.018.324.075.338.357.015.312.026.625.023.937-.009.961-.025,1.923-.041,2.884a2.183,2.183,0,0,1-.047.294" transform="translate(-490.725 -669.353)" fill="#fefefe"/>
    <path id="Path_13" data-name="Path 13" d="M224.257,791.013l.965,1.441a2.115,2.115,0,0,1-.908.061.383.383,0,0,1-.278-.207c-.219-.316-.448-.626-.663-.945a.545.545,0,0,0-.478-.269c-.254,0-.467,0-.436.4a3.284,3.284,0,0,1-.006.5c-.012.159.1.369-.082.464a.885.885,0,0,1-.764,0,.223.223,0,0,1-.1-.173q-.012-1.986-.009-3.971a.257.257,0,0,1,.27-.274,12.265,12.265,0,0,1,2.092.011,1.5,1.5,0,0,1,1.349,1.459,1.425,1.425,0,0,1-.452,1.1c-.139.131-.3.238-.5.394m-1.168-.836v-.016a3.746,3.746,0,0,0,.571-.005.608.608,0,0,0,.488-.62.53.53,0,0,0-.485-.529,1.636,1.636,0,0,0-.285-.021c-1.05,0-.886-.122-.892.916,0,.221.065.266.317.274.1,0,.191,0,.286,0" transform="translate(-188.135 -669.31)" fill="#fefefe"/>
    <path id="Path_14" data-name="Path 14" d="M325.073,791.145l.907,1.375a1.944,1.944,0,0,1-.893.067c-.131-.007-.206-.109-.276-.209q-.312-.441-.627-.879a1.305,1.305,0,0,0-.186-.219.664.664,0,0,0-.615-.066c-.14.1-.107.254-.109.393,0,.24.008.48,0,.72,0,.18-.081.255-.263.267-.072,0-.144,0-.216,0-.473,0-.479,0-.483-.484-.008-1.129-.009-2.258-.013-3.386a3.465,3.465,0,0,1,.009-.36.269.269,0,0,1,.285-.262c.24-.007.48-.006.721-.006.36,0,.721-.005,1.081.007a1.617,1.617,0,0,1,1.207.554,1.463,1.463,0,0,1-.1,2.071c-.136.129-.342.181-.436.419m-1.055-2.088c-.73,0-.728-.059-.725.577a3.09,3.09,0,0,0,.02.431c.009.061.07.159.112.162a3.182,3.182,0,0,0,1.145-.04.605.605,0,0,0,.39-.56.565.565,0,0,0-.491-.539,3.732,3.732,0,0,0-.451-.03" transform="translate(-273.756 -669.383)" fill="#fefefe"/>
    <path id="Path_15" data-name="Path 15" d="M159.115,790.279c0-.6-.006-1.2,0-1.806.005-.356.078-.438.426-.427a7.575,7.575,0,0,1,2.011.121,2.355,2.355,0,0,1,1.423,1.03,2.178,2.178,0,0,1-.811,3,2.653,2.653,0,0,1-1.3.365c-.458-.009-.916,0-1.373,0-.308-.006-.366-.068-.37-.4-.008-.626,0-1.252,0-1.878Zm1.021.011h-.017c0,.24,0,.48,0,.72.005.637.006.637.636.635.1,0,.193,0,.288,0a1.305,1.305,0,0,0,1.219-1.277,1.292,1.292,0,0,0-1.148-1.339,5.091,5.091,0,0,0-.718-.02.249.249,0,0,0-.259.278c0,.336,0,.672,0,1.007" transform="translate(-135.146 -669.338)" fill="#fefefe"/>
    <path id="Path_16" data-name="Path 16" d="M445.075,790.062a2.361,2.361,0,0,1,2.305-2.281,2.56,2.56,0,0,1,1.7.664,2.652,2.652,0,0,1,.743,1.6,2.423,2.423,0,0,1-2.425,2.354,2.344,2.344,0,0,1-2.321-2.333m3.662.138a1.333,1.333,0,0,0-1.3-1.482,1.412,1.412,0,0,0-1.374,1.364,1.348,1.348,0,0,0,1.324,1.391,1.286,1.286,0,0,0,1.349-1.273" transform="translate(-378.028 -669.118)" fill="#fefefe"/>
    <path id="Path_17" data-name="Path 17" d="M98.413,792.589a.578.578,0,0,1,.059-.487c.356-.889.714-1.776,1.07-2.666.134-.334.258-.672.391-1.007a.421.421,0,0,1,.444-.292c.817.019.69-.136,1.012.618.377.881.716,1.779,1.072,2.669.116.289.236.576.352.865.1.252.041.338-.252.35-.12,0-.241,0-.36,0a.4.4,0,0,1-.453-.276.585.585,0,0,0-.736-.4,3.054,3.054,0,0,1-.717-.006c-.422-.046-.766.009-.893.495a.263.263,0,0,1-.282.182,1.936,1.936,0,0,1-.707-.051m2.1-1.471c.09,0,.138,0,.185,0,.515-.029.506-.151.338-.506-.111-.236-.213-.476-.327-.711a.132.132,0,0,0-.231,0c-.136.327-.262.658-.394.987a.149.149,0,0,0,.118.212,1.375,1.375,0,0,0,.311.022" transform="translate(-83.56 -669.42)" fill="#fefefe"/>
    <path id="Path_18" data-name="Path 18" d="M290.815,791.907c-.144,0-.29.009-.433,0-.371-.029-.662.054-.775.463a.315.315,0,0,1-.33.229c-.193,0-.385,0-.577,0s-.233-.121-.156-.306c.1-.244.211-.485.309-.73.392-.981.8-1.957,1.162-2.948a.694.694,0,0,1,.821-.511.89.89,0,0,0,.144,0,.449.449,0,0,1,.487.337c.328.853.666,1.7,1,2.55.169.424.349.844.513,1.27.085.222.014.327-.206.341-.12.008-.241,0-.361.008a.433.433,0,0,1-.529-.359c-.062-.265-.259-.322-.493-.322h-.578v-.015m-.051-2.173a3.2,3.2,0,0,0-.466.939c-.118.311-.066.386.252.387.861,0,.893.083.531-.768-.081-.19-.087-.427-.316-.558" transform="translate(-245.052 -669.382)" fill="#fefefe"/>
    <path id="Path_19" data-name="Path 19" d="M191.982,792.646h-.216c-.177,0-.327-.029-.392-.233a.665.665,0,0,0-.783-.465c-.335.022-.672.007-1.009.006a.439.439,0,0,0-.488.336c-.07.292-.26.36-.532.361-.8,0-.671-.056-.463-.6.463-1.208.954-2.406,1.432-3.609a.421.421,0,0,1,.438-.3c.144.005.289.01.432,0a.441.441,0,0,1,.48.338c.417,1.071.845,2.137,1.271,3.2.089.222.193.439.283.661.074.182.016.281-.166.293-.1.006-.192,0-.288,0Zm-1.738-2.951a1.6,1.6,0,0,0-.342.644c-.333.817-.334.816.568.782.215-.008.309-.121.235-.313-.134-.348-.285-.69-.462-1.113" transform="translate(-159.633 -669.427)" fill="#fefefe"/>
    <path id="Path_20" data-name="Path 20" d="M546.638,791.911c-.144,0-.289,0-.433,0-.365-.014-.662.063-.777.473a.319.319,0,0,1-.339.216c-.168,0-.336,0-.5,0s-.254-.122-.188-.293c.147-.38.307-.755.457-1.133.344-.867.7-1.731,1.022-2.6.128-.343.316-.52.692-.459a.972.972,0,0,0,.216-.009.443.443,0,0,1,.488.329c.173.447.378.881.557,1.325q.511,1.267,1.005,2.54c.088.227.03.3-.217.312-.144.006-.289,0-.433,0a.358.358,0,0,1-.4-.242.66.66,0,0,0-.79-.455,3.344,3.344,0,0,1-.36,0Zm-.562-.877a2.387,2.387,0,0,0,.934,0,.143.143,0,0,0,.113-.211,2.858,2.858,0,0,0-.54-1.107,3.657,3.657,0,0,0-.507,1.322" transform="translate(-462.376 -669.384)" fill="#fefefe"/>
    <path id="Path_21" data-name="Path 21" d="M131,791.1a2.911,2.911,0,0,0,1.035.467,1.114,1.114,0,0,0,.708-.03c.154-.068.316-.127.336-.334a.393.393,0,0,0-.29-.438,5.621,5.621,0,0,0-.623-.173,4.829,4.829,0,0,1-1.009-.375,1.147,1.147,0,0,1-.4-1.619,1.492,1.492,0,0,1,1.171-.744,2.581,2.581,0,0,1,1.848.448c.161.122.187.2.082.357-.082.119-.169.234-.26.346s-.18.152-.3.049a1.557,1.557,0,0,0-.587-.267,1.513,1.513,0,0,0-.785-.026.434.434,0,0,0-.311.357.356.356,0,0,0,.2.354,2.391,2.391,0,0,0,.476.153,4.622,4.622,0,0,1,1.154.4,1.188,1.188,0,0,1,.336,1.881,1.368,1.368,0,0,1-.721.453,2.875,2.875,0,0,1-2.463-.488.2.2,0,0,1-.057-.309A1.122,1.122,0,0,1,131,791.1" transform="translate(-110.83 -669.169)" fill="#fefefe"/>
    <path id="Path_22" data-name="Path 22" d="M376.94,791.665l.455-.566c.227-.055.329.11.467.191a2.371,2.371,0,0,0,.962.283,1.035,1.035,0,0,0,.287-.013.5.5,0,0,0,.458-.393c.028-.213-.081-.367-.357-.472-.133-.051-.28-.065-.417-.108a7.549,7.549,0,0,1-1.021-.345,1.205,1.205,0,0,1-.371-1.888,1.31,1.31,0,0,1,.718-.46,2.5,2.5,0,0,1,2.135.366.264.264,0,0,1,.073.428,2.868,2.868,0,0,1-.222.284.213.213,0,0,1-.311.056,1.848,1.848,0,0,0-1.088-.331c-.316.011-.523.133-.574.339-.056.226.116.426.475.53s.7.175,1.044.284a1.226,1.226,0,0,1,.664.412,1.048,1.048,0,0,1,.256,1.059,1.384,1.384,0,0,1-1.03,1.007,2.684,2.684,0,0,1-2.6-.665" transform="translate(-320.162 -669.142)" fill="#fefefe"/>
    <path id="Path_23" data-name="Path 23" d="M263.355,788.167c.312,0,.625-.016.936,0a2.05,2.05,0,0,1,.877.29,1.5,1.5,0,0,1-.013,2.447,2.067,2.067,0,0,1-1.088.319c-.322.012-.73-.171-.948.129-.171.236-.071.6-.071.91a1.141,1.141,0,0,1-.012.214.2.2,0,0,1-.07.112,1.115,1.115,0,0,1-.765,0,.2.2,0,0,1-.077-.116,2.335,2.335,0,0,1-.032-.356q-.009-1.656-.013-3.312a3.044,3.044,0,0,1,.027-.429.242.242,0,0,1,.242-.224c.336-.009.672,0,1.008,0v.009m.3,2.133c0,.006,0,.013,0,.019a4.838,4.838,0,0,0,.643-.054.581.581,0,0,0,.455-.642.536.536,0,0,0-.524-.5,2.027,2.027,0,0,0-.287-.016c-1.006.007-.887-.11-.87.955a.223.223,0,0,0,.224.231c.119.01.239,0,.359,0" transform="translate(-222.602 -669.437)" fill="#fefefe"/>
    <path id="Path_24" data-name="Path 24" d="M517.995,792.514c0-1.053,0-2.133,0-3.212,0-.288,0-.576.008-.864.009-.209.1-.3.32-.3q.936-.006,1.873.014a1.612,1.612,0,0,1,1.037.451,1.475,1.475,0,0,1-.216,2.3,1.894,1.894,0,0,1-.948.3c-.333.008-.734-.133-.981.077-.263.223-.061.635-.107.961-.007.047,0,.1-.009.144a.245.245,0,0,1-.227.236,1.106,1.106,0,0,1-.75-.106m1.742-3.422c-.776,0-.742-.049-.749.643a1.846,1.846,0,0,0,.021.359c.012.063.07.163.112.165a3.671,3.671,0,0,0,1.149-.031c.274-.074.385-.3.358-.63a.468.468,0,0,0-.448-.477,3.528,3.528,0,0,0-.442-.029" transform="translate(-439.97 -669.418)" fill="#fefefe"/>
    <path id="Path_25" data-name="Path 25" d="M419.438,791.032c.092.065.134.088.169.12.549.495.669.463-.073.926a2.317,2.317,0,0,1-2.886-.495,2.182,2.182,0,0,1,.072-3.115,2.35,2.35,0,0,1,3.2-.152c.163.138.163.248,0,.414-.068.067-.141.13-.213.195-.246.224-.253.234-.528.04a1.273,1.273,0,0,0-.874-.263,1.36,1.36,0,0,0-1.178.92,1.407,1.407,0,0,0,.385,1.518,1.392,1.392,0,0,0,1.485.173,4.959,4.959,0,0,0,.44-.28" transform="translate(-353.363 -669.099)" fill="#fefefe"/>
    <path id="Path_26" data-name="Path 26" d="M63.818,736.322a3.811,3.811,0,0,1,.045.4c0,1.132.006,2.264,0,3.4a1.955,1.955,0,0,1-1.007,1.722,1.7,1.7,0,0,1-1.037.24c-.117-.008-.25.025-.324-.1a.564.564,0,0,1,0-.552.281.281,0,0,1,.169-.115c.139-.038.29-.037.423-.087a.707.707,0,0,0,.49-.573,4.057,4.057,0,0,0,.026-.576c0-1.012,0-2.023,0-3.035,0-.144,0-.29.011-.433s.083-.279.263-.282c.31,0,.621,0,.944,0" transform="translate(-52.169 -625.41)" fill="#fefefe"/>
    <path id="Path_27" data-name="Path 27" d="M174.863,727.437c0,.864.005,1.727,0,2.591,0,.369-.053.407-.417.421-.833.033-.834.033-.835-.811q0-2.267,0-4.534a5.279,5.279,0,0,1,.023-.574c.006-.057.078-.108.124-.157a.109.109,0,0,1,.069-.018c1.143-.029,1.032-.183,1.043.85.008.744,0,1.487,0,2.231Z" transform="translate(-147.457 -615.226)" fill="#fefefe"/>
    <path id="Path_28" data-name="Path 28" d="M613.324,788.123c-.423.71-.791,1.381-1.212,2.016a2.017,2.017,0,0,0-.427,1.472,2.507,2.507,0,0,1-.008.359c0,.514.013.571-.563.559-.4-.008-.479-.051-.43-.464a3.056,3.056,0,0,0-.668-2.2c-.333-.468-.61-.975-.905-1.469-.131-.219-.047-.349.226-.365a.533.533,0,0,0,.072,0,.781.781,0,0,1,.961.529,12.371,12.371,0,0,0,.623,1.134.172.172,0,0,0,.294,0c.286-.472.57-.945.843-1.423a.4.4,0,0,1,.4-.237,1.869,1.869,0,0,1,.8.092" transform="translate(-517.31 -669.31)" fill="#fefefe"/>
    <path id="Path_29" data-name="Path 29" d="M354.452,738.4c0,.529,0,1.057,0,1.586a2.019,2.019,0,0,1-.62,1.485,1.841,1.841,0,0,1-1.576.549.248.248,0,0,1-.249-.211c-.069-.4,0-.5.4-.594.6-.141.755-.318.759-.936.007-1.153,0-2.307,0-3.46,0-.55.009-.547.57-.561.784-.019.714.023.711.7,0,.481,0,.961,0,1.442Z" transform="translate(-298.965 -625.354)" fill="#fefefe"/>
    <path id="Path_30" data-name="Path 30" d="M352.636,789.023c-.687-.01-.646-.012-.648.605,0,.841,0,1.681-.008,2.522,0,.4-.046.436-.468.436a2.231,2.231,0,0,1-.287-.016.224.224,0,0,1-.215-.239q-.006-.288-.007-.576c0-.745-.005-1.489,0-2.234,0-.4,0-.531-.467-.49a3.1,3.1,0,0,1-.575-.017c-.262-.026-.334-.109-.338-.367a1.763,1.763,0,0,1,.028-.357.235.235,0,0,1,.247-.212c.048,0,.1,0,.144,0,1.009,0,2.018,0,3.027,0,.214,0,.317.092.328.289a2.119,2.119,0,0,1-.014.431.248.248,0,0,1-.238.228c-.167.008-.336,0-.5,0" transform="translate(-296.955 -669.366)" fill="#fefefe"/>
    <path id="Path_31" data-name="Path 31" d="M610.305,718.931c-.016-.135.1-.192.167-.141a4.862,4.862,0,0,1,.52.5c.122.127.112.234-.025.369-.085.084-.178.16-.268.24-.287.255-.287.255-.58-.008-.071-.064-.135-.136-.21-.195-.168-.132-.26-.121-.44.037-.143.125-.235.36-.429.363-.259,0-.365-.278-.541-.429s-.183-.263-.029-.422.342-.33.5-.481c.333.081.413.446.752.516.015-.178-.155-.2-.228-.289-.109-.125-.246-.227-.353-.353a.241.241,0,0,1,0-.328c.015-.019.035-.033.051-.051.47-.545.584-.544,1.043,0a.33.33,0,0,1,.065.39.7.7,0,0,0,0,.28c-.077.1-.155.02-.233,0a.086.086,0,0,0-.059.021.058.058,0,0,0-.019.047c.009.053.039.052.089,0s.113-.149.218-.066" transform="translate(-516.723 -609.719)" fill="#fefefe"/>
    <path id="Path_32" data-name="Path 32" d="M301.1,724.509c-.122.144-.208.259-.308.36-.386.4-.389.4-.787,0a3.9,3.9,0,0,1-.248-.3l-.724.6c-.186-.021-.266-.151-.366-.25-.416-.408-.415-.409.018-.83.282-.275.3-.276.584-.025.09.08.172.167.262.247a.2.2,0,0,0,.262.015,1.677,1.677,0,0,0,.219-.184c.4-.391.429-.327.8.049.084.085.16.178.289.324" transform="translate(-253.414 -614.836)" fill="#fefefe"/>
    <path id="Path_33" data-name="Path 33" d="M507.984,725.149l-.663-.6c-.181.162-.354.315-.524.47a.238.238,0,0,1-.376-.01c-.161-.173-.387-.293-.46-.571.119-.131.246-.273.375-.413.285-.309.379-.236.575-.006a2.491,2.491,0,0,0,.205.2.273.273,0,0,0,.387.021c.057-.044.109-.094.163-.141.388-.341.388-.341.715.01.049.053.1.1.152.154.173.19.188.264.021.412s-.3.378-.57.469" transform="translate(-429.749 -614.794)" fill="#fefefe"/>
    <path id="Path_34" data-name="Path 34" d="M96.126,767.6c.229-.1.342-.327.531-.471a.221.221,0,0,1,.263-.008.262.262,0,0,1,.057.044c.649.608.62.539.029,1.069-.186.167-.216.153-.424-.008-.164-.126-.272-.4-.515-.328-.168.05-.3.23-.445.35-.176.142-.267.137-.441-.015-.54-.473-.538-.564.017-1.044.187-.162.25-.165.427,0a1.394,1.394,0,0,0,.5.407" transform="translate(-80.502 -651.522)" fill="#fefefe"/>
    <path id="Path_35" data-name="Path 35" d="M130.781,724.431c.712-.852.6-.859,1.3-.012-.014.044-.016.1-.044.13-.655.692-.53.822-1.261-.119" transform="translate(-111.082 -614.765)" fill="#fefefe"/>
    <path id="Path_36" data-name="Path 36" d="M495.561,519.3l-.056.118c-.062-.1,0-.1.073-.1l-.016-.017" transform="translate(-420.846 -441.076)" fill="#e91f25"/>
    <path id="Path_37" data-name="Path 37" d="M528.468,588.7c.026-.058.067-.121.129-.065s.005.11-.044.151l-.085-.086" transform="translate(-448.866 -499.949)" fill="#fefefe"/>
    <path id="Path_38" data-name="Path 38" d="M569.138,426.8c-.09-.033.028-.082-.037-.012-.016.017.019.033.034-.016,0,0,0,.027,0,.027" transform="translate(-483.375 -362.474)" fill="#fefefe"/>
  </g>
</svg>
