<svg id="Group_76" data-name="Group 76" xmlns="http://www.w3.org/2000/svg" xmlns:xlink="http://www.w3.org/1999/xlink" width="291.031" height="233.725" viewBox="0 0 291.031 233.725">
  <defs>
    <clipPath id="clip-path">
      <rect id="Rectangle_10" data-name="Rectangle 10" width="291.031" height="233.725" fill="#fff"/>
    </clipPath>
  </defs>
  <g id="Group_11" data-name="Group 11" clip-path="url(#clip-path)">
    <path id="Path_40" data-name="Path 40" d="M183.57,233.725a.572.572,0,0,1,.179-.614,4.935,4.935,0,0,1,.553-.409,90.844,90.844,0,0,0,20.476-18.637,86.958,86.958,0,0,0,19.328-43.885,91.951,91.951,0,0,0,.7-17.692,118.175,118.175,0,0,0-3.338-21.375,59.01,59.01,0,0,0-6.118-14.913,101.755,101.755,0,0,0-13.787-19.162A97.421,97.421,0,0,0,157.5,69.094a105.262,105.262,0,0,0-16.022-3.574c-3.912-.562-7.839-.954-11.792-1.123q-2.229-.1-4.459-.169a58.337,58.337,0,0,0-9.036.6,123.785,123.785,0,0,0-15.462,2.9,104.233,104.233,0,0,0-22.467,8.4A74.481,74.481,0,0,0,66.3,83.828c-1.131.9-1.025.832-2.132.1Q50.719,75.064,36.618,67.2A280,280,0,0,0,11.323,54.572c-3.273-1.411-6.585-2.73-9.95-3.921-.262-.093-.529-.174-.786-.28A.793.793,0,0,1,0,49.425a.77.77,0,0,1,.677-.744,14.177,14.177,0,0,1,2.893-.4,31.191,31.191,0,0,1,5.281.359A92.93,92.93,0,0,1,23.094,51.9a277.762,277.762,0,0,1,26.261,9.5c3.64,1.5,7.248,3.062,10.873,4.591a1.358,1.358,0,0,0,.8.227c.135-.374-.195-.566-.37-.788a34.756,34.756,0,0,0-5.9-5.736,50.531,50.531,0,0,0-6.688-4.4c-.323-.179-.649-.354-.963-.547s-.324-.4-.064-.659.541-.495.813-.741A61.1,61.1,0,0,0,58.941,40.171,43.806,43.806,0,0,0,65.02,24.992,35.867,35.867,0,0,0,64.844,11c-.056-.265-.125-.528-.169-.795a.6.6,0,0,1,.437-.741c.482-.165.959-.344,1.445-.5,6.673-2.138,13.461-3.87,20.3-5.4Q95.357,1.664,103.945.2c.183-.031.363-.082.546-.11,1.256-.2,1.316-.164,1.662.989a61.88,61.88,0,0,0,10.767,20.66,57.168,57.168,0,0,0,34.514,21.112,76.062,76.062,0,0,0,17.2,1.4c1.3-.031,2.6-.077,3.9-.127.209-.008.457.062.609-.163-.043-.257-.262-.229-.429-.238-11.667-.634-22.193-4.6-32.111-10.343-2.038-1.18-4.014-2.452-5.941-3.8-.256-.179-.591-.286-.715-.625a1.522,1.522,0,0,1,.926.161,57.628,57.628,0,0,0,11.062,2.12,59.25,59.25,0,0,0,9.475.15,55.369,55.369,0,0,0,17.826-4.117,59.32,59.32,0,0,0,18.268-11.989c.831-.789,1.641-1.6,2.449-2.411a.794.794,0,0,1,1-.187c1.267.567,2.552,1.094,3.814,1.671a157.988,157.988,0,0,1,18.8,10.056,80.8,80.8,0,0,1,10.232,7.5c.241.212.476.431.716.645a.631.631,0,0,1,.14.853c-.275.522-.545,1.048-.8,1.578a73.606,73.606,0,0,0-6.525,20.629,57.638,57.638,0,0,0-.566,13.768,49.343,49.343,0,0,0,12.981,29.891,68.807,68.807,0,0,0,12.2,10.47c.187.129.39.236.6.363.179-.324-.138-.4-.247-.551a3.11,3.11,0,0,0-.387-.388,70.127,70.127,0,0,1-9.48-11.5A52.981,52.981,0,0,1,229.5,82.949a42.474,42.474,0,0,1-1.475-9.343c-.022-.4-.022-.813,0-1.218.009-.2-.1-.521.211-.552.256-.025.3.294.421.475.05.076.085.161.128.24a56.224,56.224,0,0,0,11.224,14.577A50.253,50.253,0,0,0,265.3,100.116a54.7,54.7,0,0,0,15.55.723c1.59-.15,1.6-.163,2.094,1.265a191.581,191.581,0,0,1,7.085,25.456,30.849,30.849,0,0,1,.757,5.219,1.036,1.036,0,0,0,.248.753v5.145a3.561,3.561,0,0,0-1.6.42,68.911,68.911,0,0,0-6.628,2.852,73.293,73.293,0,0,0-23.07,17.215,56.332,56.332,0,0,0-7.982,11.712,55.492,55.492,0,0,0-5.876,22.535,69.4,69.4,0,0,0,.282,9.869c.064.712.2,1.419.307,2.128a1.447,1.447,0,0,0,.2-.659c.249-2.2.44-4.4.787-6.584a76.924,76.924,0,0,1,4.806-17.479,52.812,52.812,0,0,1,8.858-14.645c.3-.341.486-.865,1.092-.855.142.476-.137.88-.269,1.3a54.526,54.526,0,0,0-2.375,13.573,52.466,52.466,0,0,0,5.363,25.728,57.145,57.145,0,0,0,11.142,15.131c.456.451.9.92,1.389,1.331a1.264,1.264,0,0,1,.411,1.462c-.05.174-.1.347-.153.52a21.187,21.187,0,0,1-4.8,8.616c-.242.262-.579.472-.59.883Z" transform="translate(0 0)" fill="#fff"/>
  </g>
</svg>
