<svg id="Group_35" data-name="Group 35" xmlns="http://www.w3.org/2000/svg" xmlns:xlink="http://www.w3.org/1999/xlink" width="478.197" height="384.037" viewBox="0 0 478.197 384.037">
  <defs>
    <clipPath id="clip-path">
      <rect id="Rectangle_10" data-name="Rectangle 10" width="478.197" height="384.037" fill="#fff"/>
    </clipPath>
  </defs>
  <g id="Group_11" data-name="Group 11" clip-path="url(#clip-path)">
    <path id="Path_40" data-name="Path 40" d="M301.627,384.037a.94.94,0,0,1,.294-1.009,8.107,8.107,0,0,1,.909-.671,149.267,149.267,0,0,0,33.644-30.623,142.882,142.882,0,0,0,31.757-72.109,151.088,151.088,0,0,0,1.146-29.07,194.172,194.172,0,0,0-5.485-35.122,96.962,96.962,0,0,0-10.052-24.5,167.2,167.2,0,0,0-22.653-31.486,160.074,160.074,0,0,0-72.394-45.913,172.96,172.96,0,0,0-26.327-5.873c-6.429-.923-12.88-1.567-19.376-1.845q-3.663-.157-7.327-.278a95.855,95.855,0,0,0-14.848.993,203.391,203.391,0,0,0-25.406,4.771,171.266,171.266,0,0,0-36.916,13.8,122.38,122.38,0,0,0-19.651,12.639c-1.859,1.474-1.683,1.368-3.5.169q-22.1-14.569-45.273-27.484A460.072,460.072,0,0,0,18.605,89.668c-5.379-2.319-10.82-4.486-16.35-6.442-.431-.152-.87-.286-1.291-.459a1.3,1.3,0,0,1-.957-1.555A1.265,1.265,0,0,1,1.12,79.988a23.293,23.293,0,0,1,4.753-.657,51.249,51.249,0,0,1,8.678.589,152.7,152.7,0,0,1,23.4,5.354,456.4,456.4,0,0,1,43.15,15.61c5.98,2.457,11.909,5.032,17.865,7.544a2.231,2.231,0,0,0,1.315.373c.222-.614-.32-.93-.608-1.294a57.108,57.108,0,0,0-9.692-9.426,83.029,83.029,0,0,0-10.99-7.238c-.53-.295-1.066-.581-1.582-.9-.5-.306-.533-.662-.1-1.083s.89-.813,1.337-1.217A100.393,100.393,0,0,0,96.847,66.006a71.978,71.978,0,0,0,9.989-24.941,58.933,58.933,0,0,0-.29-22.983c-.091-.435-.2-.867-.278-1.306a.987.987,0,0,1,.718-1.218c.792-.271,1.576-.565,2.374-.821,10.964-3.513,22.118-6.359,33.363-8.878q13.958-3.126,28.07-5.529c.3-.051.6-.134.9-.181,2.064-.324,2.163-.27,2.731,1.625a101.676,101.676,0,0,0,17.691,33.946Q213.8,63.28,248.824,70.412a124.979,124.979,0,0,0,28.255,2.3c2.139-.051,4.277-.127,6.416-.209.343-.013.751.1,1-.268-.071-.422-.43-.376-.7-.391-19.17-1.041-36.465-7.558-52.762-16.995-3.348-1.939-6.6-4.029-9.761-6.238-.421-.294-.972-.469-1.175-1.027a2.5,2.5,0,0,1,1.522.264,94.691,94.691,0,0,0,18.176,3.484,97.354,97.354,0,0,0,15.569.247,90.977,90.977,0,0,0,29.291-6.765,97.47,97.47,0,0,0,30.017-19.7c1.365-1.3,2.7-2.627,4.023-3.961a1.305,1.305,0,0,1,1.639-.306c2.081.931,4.194,1.8,6.266,2.746a259.589,259.589,0,0,1,30.9,16.523A132.763,132.763,0,0,1,374.3,52.441c.4.349.783.708,1.176,1.059a1.037,1.037,0,0,1,.229,1.4c-.452.858-.895,1.721-1.319,2.593a120.944,120.944,0,0,0-10.722,33.9,94.7,94.7,0,0,0-.93,22.622,81.075,81.075,0,0,0,21.329,49.115,113.059,113.059,0,0,0,20.042,17.2c.308.211.641.388.988.6.294-.532-.226-.652-.406-.906a5.107,5.107,0,0,0-.636-.638,115.227,115.227,0,0,1-15.577-18.9,87.053,87.053,0,0,1-11.38-24.185,69.791,69.791,0,0,1-2.423-15.352c-.036-.665-.035-1.335-.006-2,.014-.331-.172-.857.346-.908.421-.042.5.483.691.781.082.124.139.264.21.395a92.383,92.383,0,0,0,18.443,23.952A82.573,82.573,0,0,0,435.914,164.5a89.875,89.875,0,0,0,25.55,1.187c2.613-.247,2.635-.267,3.441,2.078A314.782,314.782,0,0,1,476.546,209.6a50.687,50.687,0,0,1,1.244,8.575,1.7,1.7,0,0,0,.408,1.237v8.454a5.852,5.852,0,0,0-2.622.691,113.23,113.23,0,0,0-10.89,4.687c-14.479,7.1-27.315,16.281-37.907,28.286a92.562,92.562,0,0,0-13.116,19.244,91.179,91.179,0,0,0-9.656,37.028,114.017,114.017,0,0,0,.464,16.215c.1,1.171.333,2.331.5,3.5a2.378,2.378,0,0,0,.325-1.083c.409-3.608.723-7.225,1.293-10.818a126.4,126.4,0,0,1,7.9-28.72,86.777,86.777,0,0,1,14.554-24.064c.487-.56.8-1.42,1.794-1.406.234.782-.225,1.446-.442,2.129a89.589,89.589,0,0,0-3.9,22.3,86.206,86.206,0,0,0,8.811,42.273,93.9,93.9,0,0,0,18.307,24.863c.749.741,1.475,1.511,2.283,2.187a2.076,2.076,0,0,1,.675,2.4c-.083.285-.168.57-.251.855a34.813,34.813,0,0,1-7.881,14.156c-.4.43-.952.776-.97,1.451Z" transform="translate(0 0)" fill="#fff"/>
  </g>
</svg>
