<svg xmlns="http://www.w3.org/2000/svg" xmlns:xlink="http://www.w3.org/1999/xlink" width="323.367" height="259.694" viewBox="0 0 323.367 259.694">
  <defs>
    <clipPath id="clip-path">
      <rect id="Rectangle_26" data-name="Rectangle 26" width="323.367" height="259.694" fill="none"/>
    </clipPath>
  </defs>
  <g id="Group_20" data-name="Group 20" clip-path="url(#clip-path)">
    <path id="Path_63" data-name="Path 63" d="M20.782,259.694c-.012-.455-.387-.689-.656-.982a23.544,23.544,0,0,1-5.329-9.573c-.056-.192-.111-.385-.17-.578a1.4,1.4,0,0,1,.456-1.624c.549-.457,1.037-.978,1.544-1.479a63.5,63.5,0,0,0,12.378-16.813,58.3,58.3,0,0,0,5.959-28.586,60.6,60.6,0,0,0-2.639-15.081c-.146-.462-.457-.913-.3-1.44.673-.01.884.572,1.213.951a58.689,58.689,0,0,1,9.841,16.273,85.466,85.466,0,0,1,5.34,19.42c.385,2.429.6,4.875.874,7.315a1.611,1.611,0,0,0,.22.732c.116-.788.271-1.573.342-2.364a77.031,77.031,0,0,0,.314-10.965,61.651,61.651,0,0,0-6.529-25.039,62.574,62.574,0,0,0-8.869-13.014A81.439,81.439,0,0,0,9.139,157.72a76.547,76.547,0,0,0-7.364-3.169A3.962,3.962,0,0,0,0,154.082v-5.717a1.149,1.149,0,0,0,.276-.836,34.336,34.336,0,0,1,.841-5.8,212.865,212.865,0,0,1,7.872-28.285c.545-1.585.56-1.571,2.327-1.4a60.781,60.781,0,0,0,17.277-.8A55.835,55.835,0,0,0,56.7,96.807a62.479,62.479,0,0,0,12.471-16.2,2.967,2.967,0,0,1,.142-.267c.133-.2.183-.555.468-.526.351.035.224.39.234.614.02.45.02.9,0,1.353a47.21,47.21,0,0,1-1.638,10.381,58.858,58.858,0,0,1-7.7,16.355,77.892,77.892,0,0,1-10.53,12.78,3.407,3.407,0,0,0-.431.431c-.121.171-.473.253-.274.612.235-.14.46-.26.668-.4a76.464,76.464,0,0,0,13.553-11.633A54.774,54.774,0,0,0,78.083,77.1a64.027,64.027,0,0,0-.629-15.3A81.776,81.776,0,0,0,70.2,38.877c-.287-.591-.587-1.175-.892-1.755a.7.7,0,0,1,.155-.948c.269-.238.528-.483.8-.717a89.747,89.747,0,0,1,11.368-8.333A175.525,175.525,0,0,1,102.52,15.953c1.4-.642,2.83-1.228,4.237-1.857a.883.883,0,0,1,1.108.207c.9.9,1.8,1.8,2.721,2.678a65.917,65.917,0,0,0,20.3,13.321,61.53,61.53,0,0,0,19.807,4.574,65.851,65.851,0,0,0,10.529-.167,64,64,0,0,0,12.291-2.356,1.692,1.692,0,0,1,1.029-.175c-.138.377-.51.5-.795.694-2.14,1.494-4.336,2.908-6.6,4.219-11.023,6.381-22.718,10.79-35.681,11.492-.184.01-.428-.021-.476.264.168.25.442.173.676.181,1.446.056,2.892.107,4.338.142a84.535,84.535,0,0,0,19.106-1.557,63.32,63.32,0,0,0,38.35-23.456A68.756,68.756,0,0,0,205.419,1.2c.384-1.282.451-1.318,1.847-1.1.2.032.4.088.607.123q9.543,1.624,18.981,3.738c7.6,1.7,15.15,3.628,22.552,6,.54.173,1.07.372,1.606.555l.017,0a.667.667,0,0,1,.469.819c-.049.3-.126.59-.188.883a39.857,39.857,0,0,0-.2,15.541,48.674,48.674,0,0,0,6.755,16.865,67.884,67.884,0,0,0,12.315,14.632c.3.273.614.538.9.823s.266.526-.071.733-.711.408-1.07.608a56.119,56.119,0,0,0-7.429,4.894,38.616,38.616,0,0,0-6.551,6.376c-.193.249-.559.462-.409.877a1.509,1.509,0,0,0,.889-.252c4.027-1.7,8.036-3.44,12.081-5.1a308.615,308.615,0,0,1,29.179-10.556,103.271,103.271,0,0,1,15.821-3.62,34.632,34.632,0,0,1,5.868-.4,15.754,15.754,0,0,1,3.214.444.855.855,0,0,1,.752.827.88.88,0,0,1-.648,1.053c-.285.118-.581.208-.873.311-3.739,1.323-7.418,2.789-11.055,4.357a311.172,311.172,0,0,0-28.106,14.035q-15.668,8.733-30.614,18.585c-1.231.808-1.112.877-2.369-.117A82.757,82.757,0,0,0,236.408,84.6a115.83,115.83,0,0,0-24.963-9.333,137.488,137.488,0,0,0-17.18-3.227,64.788,64.788,0,0,0-10.04-.672q-2.477.082-4.954.188c-4.393.188-8.755.624-13.1,1.248a117.007,117.007,0,0,0-17.8,3.972A108.249,108.249,0,0,0,99.411,107.82a113.071,113.071,0,0,0-15.318,21.292,65.573,65.573,0,0,0-6.8,16.57,131.332,131.332,0,0,0-3.709,23.748,102.174,102.174,0,0,0,.775,19.658A96.621,96.621,0,0,0,95.837,237.85a100.936,100.936,0,0,0,22.75,20.707,5.476,5.476,0,0,1,.615.454.635.635,0,0,1,.2.683Z" transform="translate(-0.001 0)" fill="#fff"/>
  </g>
</svg>
